<svg width="800" height="600" xmlns="http://www.w3.org/2000/svg">

 <g>
  <title>Layer 1</title>
  <g>
   <g>
    <g>
     <path d="m311.30001,111.05001c0,34.6 28.1,62.7 62.7,62.7s62.7,-28.1 62.7,-62.7s-28.1,-62.7 -62.7,-62.7s-62.7,28.1 -62.7,62.7zm62.7,-38.2c21.1,0 38.2,17.1 38.2,38.2s-17.1,38.2 -38.2,38.2s-38.2,-17.1 -38.2,-38.2s17.1,-38.2 38.2,-38.2z"/>
     <path d="m325.60001,186.85001c-34.3,0 -62.2,27.9 -62.2,62.2l0,79.7c0,23 12.9,44 32.8,54.7l0,104.7c0,27.3 22.2,49.5 49.5,49.5l56.6,0c27.3,0 49.5,-22.2 49.5,-49.5l0,-104.8c19.9,-10.7 32.8,-31.7 32.8,-54.7l0,-79.7c0,-34.3 -27.9,-62.2 -62.2,-62.2l-96.8,0l0,0.1zm134.5,62.1l0,79.7c0,15.7 -9.9,29.9 -24.7,35.3c-4.8,1.8 -8,6.4 -8,11.5l0,112.6c0,13.8 -11.2,25 -25,25l-56.6,0c-13.8,0 -25,-11.2 -25,-25l0,-112.5c0,-5.1 -3.2,-9.7 -8,-11.5c-14.8,-5.4 -24.7,-19.6 -24.7,-35.3l0,-79.8c0,-20.8 16.9,-37.7 37.7,-37.7l96.8,0c20.6,0.1 37.5,17 37.5,37.7z"/>
    </g>
   </g>
  </g>
  <g>
   <path d="m340.93634,295.97338l30.83333,24.60351a6.16667,5.227 0 0 0 8.46067,0l30.83333,-24.60351a6.16667,5.227 0 0 0 1.72667,-5.1486l-17.72916,-56.58232l16.7055,-18.87994a6.16667,5.227 0 0 0 -4.93333,-8.36321l-61.66666,0a6.16667,5.227 0 0 0 -4.93333,8.36321l16.7055,18.87994l-17.72916,56.58232a6.16667,5.227 0 0 0 1.72667,5.1486zm53.56366,-78.52005l-9.25,10.45401l-18.5,0l-9.25,-10.45401l36.99999,0zm-26.09116,20.90802l15.18233,0l16.3355,52.13936l-23.92666,19.08902l-23.92666,-19.08902l16.3355,-52.13936z"/>
  </g>
 </g>
</svg>